<?xml version="1.0" standalone="no"?>
<!DOCTYPE svg PUBLIC "-//W3C//DTD SVG 20010904//EN"
 "http://www.w3.org/TR/2001/REC-SVG-20010904/DTD/svg10.dtd">
<svg version="1.0" xmlns="http://www.w3.org/2000/svg"
 width="100.000000pt" height="100.000000pt" viewBox="0 0 100.000000 100.000000"
 preserveAspectRatio="xMidYMid meet">
<metadata>
Created by potrace 1.14, written by Peter Selinger 2001-2017
</metadata>
<g transform="translate(0.000000,100.000000) scale(0.100000,-0.100000)"
fill="#000000" stroke="none">
<path d="M456 862 c-3 -2 -26 -5 -51 -6 -25 -1 -49 -6 -53 -12 -13 -20 -47
-32 -80 -27 -59 9 -111 -46 -89 -94 7 -17 5 -31 -8 -60 -60 -125 -48 -267 31
-375 70 -97 176 -150 308 -152 64 -2 116 -18 116 -37 0 -9 60 -33 66 -26 3 3
-5 8 -18 13 -13 4 -38 18 -56 32 l-34 26 40 15 c123 48 229 184 234 299 1 17
3 32 5 32 2 0 22 -9 44 -21 23 -11 43 -19 44 -17 2 2 -16 14 -40 27 -41 22
-45 28 -56 80 -29 142 -114 241 -244 285 -47 16 -150 28 -159 18z m-166 -56
c0 -8 -83 -86 -91 -86 -19 0 -9 58 14 73 19 14 77 24 77 13z"/>
</g>
</svg>
